<svg xmlns="http://www.w3.org/2000/svg" viewBox="0 0 285.25 379.03"><defs><style>.cls-1{fill:#00b4d8;}.cls-2,.cls-3{fill:#240046;}.cls-3{fill-rule:evenodd;}</style></defs><g id="Layer_2" data-name="Layer 2"><g id="Layer_1-2" data-name="Layer 1"><path class="cls-1" d="M222.07,160.62l-5.55,6.95-14.11,17.65a98.57,98.57,0,0,0-59.88-18.89c-51.8.76-94.16,42.4-94.16,91.63v80.33a122.32,122.32,0,0,1-17.15-23.2A116.53,116.53,0,0,1,16,251.69C19,188.49,72.84,137.76,139.37,135.52A132.13,132.13,0,0,1,222.07,160.62Z"/><path class="cls-1" d="M220.64,354.88A132,132,0,0,1,144,379a136,136,0,0,1-21.79-1.75V345.77A100.14,100.14,0,0,0,144,348.14a98.54,98.54,0,0,0,57.25-18.07Z"/><path class="cls-2" d="M189.46,201.44a76.48,76.48,0,0,0-46.27-14.75c-40.38.42-73.4,32.86-73.4,71.23v98.61a130.06,130.06,0,0,0,31,15.4V314.61a75.23,75.23,0,0,0,21.42,10.08,77.67,77.67,0,0,0,21.78,3.1,76.51,76.51,0,0,0,44.49-14.07c18.07-12.86,29.75-33.38,29.75-56.49C218.26,234.54,207,214.34,189.46,201.44ZM170,290a45.1,45.1,0,0,1-47.78,2.66c-12.81-7.12-21.42-20.32-21.42-35.44,0-22.55,19.4-41,43.12-41.09a44.42,44.42,0,0,1,26.75,8.75A39.84,39.84,0,0,1,170,290Z"/><path class="cls-3" d="M221.71,92.37C195.34,82.22,169.05,74.05,142.61,74S89.88,82.13,63.54,92.36a2.46,2.46,0,0,0-1.64,2.31v39.59a2.44,2.44,0,0,0,.17.9,166.5,166.5,0,0,1,161.28-8.32V94.68A2.44,2.44,0,0,0,221.71,92.37ZM29,126.06a2.32,2.32,0,0,1,.79-2.13.87.87,0,0,0,.27-.63v-.5H17.79v.5a.85.85,0,0,0,.29.63,2.36,2.36,0,0,1,.78,2.13l-3.1,22.13h.39A2.56,2.56,0,0,0,18.76,146l.81-7-.42,6.56a2.37,2.37,0,0,0,.71,1.86,2.59,2.59,0,0,0,1.91.79h.11l.12-4.5.34-13.3.34,13.3.05,2.06a2.58,2.58,0,0,0,2.63,2.44h1.7l.31-12.09.25,9.65a2.57,2.57,0,0,0,2.63,2.44h1.81Zm-1.56-12.63h-7a2.57,2.57,0,0,0-2.63,2.49v3.88a2.58,2.58,0,0,0,2.63,2.5h7A2.57,2.57,0,0,0,30,119.8v-3.88A2.57,2.57,0,0,0,27.39,113.43Zm256.28-56L216,29.77,143.66.21a2.66,2.66,0,0,0-2.07,0L69.3,29.77,1.59,57.47a2.45,2.45,0,0,0,0,4.59l18.09,7.4a2.44,2.44,0,0,1,1.59,2.29v37.11a2.56,2.56,0,0,1-2.58,2.5.91.91,0,0,0-.9.88v.68H30v-.68a.9.9,0,0,0-.9-.88,2.56,2.56,0,0,1-2.57-2.5V70a2.45,2.45,0,0,1,1.62-2.31L92.48,42.45a2.69,2.69,0,0,1,3.43,1.36,2.47,2.47,0,0,1-1.42,3.27L34.08,70.73a2.45,2.45,0,0,0,0,4.6L61.9,86.72v-.47c26.9-10.53,53.72-19,80.71-19s53.83,8.55,80.74,19v.47l60.32-24.66a2.46,2.46,0,0,0,0-4.59Z"/></g></g></svg>