<svg xmlns="http://www.w3.org/2000/svg" viewBox="0 0 286.25 380.03"><defs><style>.cls-1,.cls-2{fill:#fff;stroke:#000;stroke-miterlimit:10;}.cls-2{fill-rule:evenodd;}</style></defs><g id="Layer_2" data-name="Layer 2"><g id="Layer_1-2" data-name="Layer 1"><path class="cls-1" d="M222.57,161.12,217,168.07l-14.11,17.65A98.57,98.57,0,0,0,143,166.83c-51.8.76-94.16,42.4-94.16,91.63v80.33a122.32,122.32,0,0,1-17.15-23.2,116.53,116.53,0,0,1-15.22-63.4C19.45,189,73.34,138.26,139.87,136A132.13,132.13,0,0,1,222.57,161.12Z"/><path class="cls-1" d="M221.14,355.38a132,132,0,0,1-76.62,24.15,136,136,0,0,1-21.79-1.75V346.27a100.14,100.14,0,0,0,21.79,2.37,98.54,98.54,0,0,0,57.25-18.07Z"/><path class="cls-1" d="M190,201.94a76.48,76.48,0,0,0-46.27-14.75c-40.38.42-73.4,32.86-73.4,71.23V357a130.06,130.06,0,0,0,31,15.4V315.11a75.23,75.23,0,0,0,21.42,10.08,77.67,77.67,0,0,0,21.78,3.1A76.51,76.51,0,0,0,189,314.22c18.07-12.86,29.75-33.38,29.75-56.49C218.76,235,207.48,214.84,190,201.94Zm-19.44,88.6a45.1,45.1,0,0,1-47.78,2.66c-12.81-7.12-21.42-20.32-21.42-35.44,0-22.55,19.4-41,43.12-41.09a44.42,44.42,0,0,1,26.75,8.75,39.84,39.84,0,0,1-.67,65.12Z"/><path class="cls-2" d="M222.21,92.87c-26.37-10.15-52.66-18.32-79.1-18.36S90.38,82.63,64,92.86a2.46,2.46,0,0,0-1.64,2.31v39.59a2.44,2.44,0,0,0,.17.9,166.5,166.5,0,0,1,161.28-8.32V95.18A2.44,2.44,0,0,0,222.21,92.87ZM29.45,126.56a2.32,2.32,0,0,1,.79-2.13.87.87,0,0,0,.27-.63v-.5H18.29v.5a.85.85,0,0,0,.29.63,2.36,2.36,0,0,1,.78,2.13l-3.1,22.13h.39a2.56,2.56,0,0,0,2.61-2.22l.81-7L19.65,146a2.37,2.37,0,0,0,.71,1.86,2.59,2.59,0,0,0,1.91.79h.11l.12-4.5.34-13.3.34,13.3.05,2.06a2.58,2.58,0,0,0,2.63,2.44h1.7l.31-12.09.25,9.65a2.57,2.57,0,0,0,2.63,2.44h1.81Zm-1.56-12.63h-7a2.57,2.57,0,0,0-2.63,2.49v3.88a2.58,2.58,0,0,0,2.63,2.5h7a2.57,2.57,0,0,0,2.62-2.5v-3.88A2.57,2.57,0,0,0,27.89,113.93ZM284.17,58l-67.72-27.7L144.16.71a2.66,2.66,0,0,0-2.07,0L69.8,30.27,2.09,58a2.45,2.45,0,0,0,0,4.59L20.18,70a2.44,2.44,0,0,1,1.59,2.29v37.11a2.56,2.56,0,0,1-2.58,2.5.91.91,0,0,0-.9.88v.68H30.51v-.68a.9.9,0,0,0-.9-.88,2.56,2.56,0,0,1-2.57-2.5V70.45a2.45,2.45,0,0,1,1.62-2.31L93,43a2.69,2.69,0,0,1,3.43,1.36A2.47,2.47,0,0,1,95,47.58L34.58,71.23a2.45,2.45,0,0,0,0,4.6L62.4,87.22v-.47c26.9-10.53,53.72-19,80.71-19s53.83,8.55,80.74,19v.47l60.32-24.66a2.46,2.46,0,0,0,0-4.59Z"/></g></g></svg>